<?xml version="1.0" encoding="utf-8"?>
<!-- Generator: Adobe Illustrator 16.0.0, SVG Export Plug-In . SVG Version: 6.00 Build 0)  -->
<!DOCTYPE svg PUBLIC "-//W3C//DTD SVG 1.1//EN" "http://www.w3.org/Graphics/SVG/1.1/DTD/svg11.dtd">
<svg version="1.1" id="Layer_1" xmlns="http://www.w3.org/2000/svg" xmlns:xlink="http://www.w3.org/1999/xlink" x="0px" y="0px"
	 width="260px" height="40px" viewBox="0 0 260 40" enable-background="new 0 0 260 40" xml:space="preserve">
<g>
	<g>
		<path fill="#231F20" d="M168.129,31.736h-1.035v5.943l-5.2-5.943h-0.879v7.678h1.036v-5.91l5.133,5.91h0.945V31.736z
			 M147.484,35.574c0-1.688,1.271-2.926,2.983-2.926c1.722,0,2.994,1.238,2.994,2.926c0,1.678-1.272,2.928-2.994,2.928
			C148.756,38.502,147.484,37.252,147.484,35.574 M146.347,35.574c0,2.084,1.588,3.941,4.098,3.941c2.601,0,4.154-1.869,4.154-3.941
			c0-2.139-1.6-3.939-4.131-3.939C147.979,31.635,146.347,33.447,146.347,35.574 M134.224,32.727h1.699
			c2.15,0,3.13,1.307,3.13,2.848c0,0.945-0.574,2.85-3.073,2.85h-1.756V32.727z M133.12,39.414h2.994
			c2.533,0,4.075-1.869,4.075-3.84c0-1.812-1.249-3.838-4.086-3.838h-2.983V39.414z M125.725,31.736h-1.036v5.943l-5.201-5.943
			h-0.877v7.678h1.035v-5.91l5.134,5.91h0.945V31.736z M104.286,35.574c0-1.688,1.272-2.926,2.983-2.926
			c1.722,0,2.994,1.238,2.994,2.926c0,1.678-1.272,2.928-2.994,2.928C105.559,38.502,104.286,37.252,104.286,35.574 M103.148,35.574
			c0,2.084,1.588,3.941,4.098,3.941c2.601,0,4.154-1.869,4.154-3.941c0-2.139-1.599-3.939-4.131-3.939
			C104.781,31.635,103.148,33.447,103.148,35.574 M92.973,31.736H91.87v7.678h4.569v-0.99h-3.467V31.736z"/>
	</g>
	<g>
		<g>
			<g>
				<path fill="#231F20" d="M22.429,2.718l3.013-2.41H18.2l-5.768,19.07c-1.46-4.829-5.767-19.07-5.767-19.07H0l3.013,2.41v21.479
					L0,26.607h6.939l-3.013-2.41V4.26l6.759,22.348h0.516l7.462-24.672v22.262l-3.013,2.41h9.791l-3.013-2.41V2.718z"/>
				<g>
					<g>
						<path fill="#231F20" d="M36.907,0c-6.208,0-10.889,5.848-10.889,13.602c0,7.84,4.476,13.316,10.889,13.316
							c6.144,0,10.604-5.629,10.604-13.385C47.512,5.691,43.051,0,36.907,0z M36.857,26.002c-4.166,0-7.073-5.104-7.073-12.41
							c0-7.227,3.04-12.677,7.073-12.677c3.991,0,6.889,5.305,6.889,12.613C43.746,20.757,40.849,26.002,36.857,26.002z"/>
					</g>
				</g>
				<g>
					<g>
						<path fill="#231F20" d="M95.162,0c-6.209,0-10.889,5.848-10.889,13.602c0,7.84,4.476,13.316,10.889,13.316
							c6.144,0,10.604-5.629,10.604-13.385C105.767,5.691,101.306,0,95.162,0z M95.112,26.002c-4.166,0-7.073-5.104-7.073-12.41
							c0-7.227,3.04-12.677,7.073-12.677c3.991,0,6.889,5.305,6.889,12.613C102.001,20.757,99.104,26.002,95.112,26.002z"/>
					</g>
				</g>
				<polygon fill="#231F20" points="61.178,25.693 55.264,25.693 55.264,2.718 58.275,0.308 48.485,0.308 51.498,2.718 
					51.498,24.197 48.485,26.607 65.267,26.607 65.267,20.583 				"/>
				<polygon fill="#231F20" points="63.321,0.308 63.321,6.332 67.409,1.222 71.13,1.222 71.13,24.197 68.117,26.607 77.908,26.607 
					74.896,24.197 74.896,1.222 78.616,1.222 82.704,6.332 82.704,0.308 				"/>
				<polygon fill="#231F20" points="119.995,0.308 123.008,2.718 123.008,19.715 111.423,0.308 105.992,0.308 109.305,4.105 
					109.305,24.197 106.292,26.607 113.231,26.607 110.219,24.197 110.219,5.638 123.008,27.062 123.922,27.062 123.922,2.718 
					126.935,0.308 				"/>
			</g>
		</g>
		<g>
			<polygon fill="#231F20" points="253.06,0.308 256.072,2.718 256.072,19.715 244.486,0.308 239.057,0.308 242.369,4.105 
				242.369,24.197 239.356,26.607 246.296,26.607 243.283,24.197 243.283,5.638 256.072,27.062 256.986,27.062 256.986,2.718 
				260,0.308 			"/>
			<polygon fill="#231F20" points="234.643,0.308 230.729,0.308 233.741,2.718 227.08,20.534 222.307,2.718 225.319,0.308 
				215.396,0.308 218.407,2.718 218.407,2.717 218.982,4.86 213.121,20.534 208.348,2.718 211.36,0.308 201.437,0.308 
				204.449,2.718 210.851,26.607 211.827,26.607 219.39,6.381 224.81,26.607 225.785,26.607 234.719,2.718 237.73,0.308 			"/>
			<g>
				<g>
					<path fill="#231F20" d="M191.419,0.005c-6.209,0-10.89,5.847-10.89,13.601c0,7.84,4.476,13.314,10.89,13.314
						c6.143,0,10.604-5.627,10.604-13.383C202.022,5.695,197.562,0.005,191.419,0.005z M191.368,26.006
						c-4.166,0-7.073-5.104-7.073-12.41c0-7.227,3.041-12.677,7.073-12.677c3.991,0,6.889,5.305,6.889,12.613
						C198.257,20.761,195.359,26.006,191.368,26.006z"/>
				</g>
			</g>
			<g>
				<path fill="#231F20" d="M151.81,12.694c2.22-1.033,3.758-3.282,3.758-5.892c0-3.587-2.908-6.495-6.495-6.495h-13.157l3.013,2.41
					v9.667v11.812l-3.013,2.41h6.779h7.031c3.928,0,7.112-3.184,7.112-7.111C156.838,16.293,154.721,13.585,151.81,12.694z
					 M142.694,1.222h4.333c2.637,0,4.774,2.499,4.774,5.581s-2.136,5.58-4.771,5.582h-4.336V1.222z M147.682,25.693h-4.987V13.299
					h4.987c2.977,0,5.391,2.774,5.391,6.197C153.072,22.92,150.658,25.693,147.682,25.693z"/>
			</g>
			<g>
				<path fill="#231F20" d="M178.713,25.117c-1.26-1.055-1.794-2.996-2.194-4.731c-0.062-0.277-0.124-0.562-0.187-0.852
					c-0.499-2.344-1.121-5.261-4.045-5.975l-1.29-0.261h0.42c3.588,0,6.496-2.908,6.496-6.496c0-3.587-2.908-6.495-6.496-6.495
					h-13.156l3.013,2.41v21.479l-3.013,2.41h9.791l-3.013-2.41V13.299h4.742c0.002,0.001,1.601,1.242,2.05,2.05
					c0.384,0.905,0.564,2.189,0.731,3.463l0.259,1.854c0.539,3.289,1.413,4.887,1.887,5.549l0.28,0.393h5.503L178.713,25.117z
					 M169.373,12.385h-4.334V1.222h4.334c2.637,0,4.774,2.499,4.774,5.581S172.01,12.385,169.373,12.385z"/>
			</g>
		</g>
	</g>
</g>
</svg>
