<?xml version="1.0" encoding="utf-8"?>
<!-- Generator: Adobe Illustrator 16.0.0, SVG Export Plug-In . SVG Version: 6.00 Build 0)  -->
<!DOCTYPE svg PUBLIC "-//W3C//DTD SVG 1.1//EN" "http://www.w3.org/Graphics/SVG/1.1/DTD/svg11.dtd">
<svg version="1.1" id="Layer_1" xmlns="http://www.w3.org/2000/svg" xmlns:xlink="http://www.w3.org/1999/xlink" x="0px" y="0px"
	 width="26px" height="26px" viewBox="0 0 26 26" enable-background="new 0 0 26 26" xml:space="preserve">
<g>
	<g>
		<path fill="#FFFFFF" d="M13,0C5.82,0,0,5.82,0,13s5.82,13,13,13s13-5.82,13-13S20.18,0,13,0z M15.23,20.729
			c-0.728,0.291-1.306,0.488-1.741,0.602c-0.433,0.117-0.804,0.17-1.111,0.17c-0.63,0-1.103-0.161-1.419-0.482
			c-0.315-0.326-0.474-0.729-0.474-1.201c0-0.184,0.017-0.371,0.047-0.566c0.033-0.191,0.083-0.439,0.154-0.734l1.251-4.986
			c0.062-0.272,0.123-0.566,0.183-0.877c0.059-0.314,0.09-0.579,0.09-0.799c0-0.438-0.074-0.727-0.221-0.873
			c-0.146-0.145-0.441-0.218-0.891-0.218c-0.174,0-0.402,0.028-0.691,0.082c-0.287,0.056-0.504,0.103-0.655,0.142l0.178-0.749
			c0.614-0.274,1.168-0.477,1.654-0.61c0.49-0.131,0.875-0.199,1.159-0.199c0.647,0,1.116,0.152,1.407,0.458
			c0.293,0.305,0.438,0.714,0.438,1.23c0,0.142-0.017,0.332-0.048,0.575c-0.032,0.241-0.08,0.485-0.142,0.727l-1.256,4.984
			c-0.08,0.306-0.148,0.603-0.207,0.896c-0.06,0.29-0.087,0.531-0.087,0.719c0,0.444,0.099,0.752,0.299,0.918
			c0.2,0.164,0.526,0.242,0.974,0.242c0.148,0,0.362-0.019,0.643-0.056c0.279-0.042,0.493-0.091,0.642-0.142L15.23,20.729z
			 M15.809,6.166c-0.292,0.332-0.654,0.498-1.089,0.498c-0.402,0-0.748-0.159-1.041-0.475c-0.291-0.315-0.438-0.678-0.438-1.084
			c0-0.428,0.146-0.804,0.438-1.124C13.972,3.662,14.317,3.5,14.72,3.5c0.45,0,0.818,0.15,1.103,0.452
			c0.283,0.301,0.425,0.649,0.425,1.047C16.248,5.446,16.102,5.834,15.809,6.166z"/>
	</g>
</g>
</svg>
