<?xml version="1.0" encoding="utf-8"?>
<!-- Generator: Adobe Illustrator 16.0.0, SVG Export Plug-In . SVG Version: 6.00 Build 0)  -->
<!DOCTYPE svg PUBLIC "-//W3C//DTD SVG 1.1//EN" "http://www.w3.org/Graphics/SVG/1.1/DTD/svg11.dtd">
<svg version="1.1" id="Layer_1" xmlns="http://www.w3.org/2000/svg" xmlns:xlink="http://www.w3.org/1999/xlink" x="0px" y="0px"
	 width="20px" height="20px" viewBox="0 0 20 20" enable-background="new 0 0 20 20" xml:space="preserve">
<g>
	<g>
		<path fill="#231F20" d="M11.049,5.674c0,0,0.249,1.261,1.031,2.1c0.557-0.593,1.285-1.486,1.439-2.238
			c0.436-2.125-1.104-3.524-2.118-4.196c3.717,0.6,6.652,3.535,7.253,7.252c-0.672-1.014-2.072-2.554-4.197-2.119
			c-0.751,0.154-1.644,0.882-2.237,1.44c0.838,0.782,2.1,1.031,2.1,1.031c0.68,0.167,1.242,0.25,1.242,0.25
			c1.792,0.318,4.029,0.647,4.433,0.706C19.941,4.457,15.537,0.053,10.092,0c0.059,0.402,0.389,2.64,0.707,4.432
			C10.799,4.432,10.882,4.995,11.049,5.674z"/>
		<path fill="#231F20" d="M8.938,14.326c0,0-0.25-1.262-1.032-2.1c-0.557,0.594-1.286,1.486-1.439,2.238
			c-0.435,2.123,1.104,3.523,2.119,4.195c-3.718-0.6-6.653-3.535-7.252-7.252c0.671,1.014,2.071,2.553,4.196,2.119
			c0.751-0.154,1.644-0.883,2.238-1.441c-0.838-0.781-2.1-1.031-2.1-1.031c-0.68-0.166-1.242-0.25-1.242-0.25
			c-1.792-0.318-4.03-0.647-4.432-0.706C0.046,15.543,4.45,19.947,9.895,20c-0.059-0.402-0.388-2.639-0.706-4.432
			C9.188,15.568,9.104,15.006,8.938,14.326z"/>
		<path fill="#231F20" d="M5.667,8.945c0,0,1.261-0.249,2.1-1.031c-0.594-0.558-1.486-1.286-2.238-1.44
			C3.405,6.039,2.005,7.579,1.333,8.593c0.6-3.718,3.535-6.653,7.253-7.252C7.572,2.012,6.032,3.412,6.467,5.536
			C6.621,6.288,7.35,7.181,7.907,7.774c0.782-0.838,1.032-2.1,1.032-2.1c0.166-0.68,0.25-1.242,0.25-1.242
			C9.507,2.64,9.836,0.402,9.895,0C4.45,0.053,0.046,4.457-0.007,9.901c0.402-0.059,2.64-0.388,4.432-0.706
			C4.425,9.195,4.988,9.112,5.667,8.945z"/>
		<path fill="#231F20" d="M14.319,11.055c0,0-1.262,0.25-2.1,1.031c0.594,0.559,1.486,1.287,2.238,1.439
			c2.124,0.436,3.523-1.104,4.196-2.117c-0.601,3.717-3.536,6.652-7.253,7.252c1.014-0.672,2.554-2.072,2.118-4.195
			c-0.154-0.752-0.883-1.645-1.439-2.238c-0.782,0.838-1.031,2.1-1.031,2.1c-0.167,0.68-0.25,1.242-0.25,1.242
			C10.48,17.361,10.15,19.598,10.092,20c5.445-0.053,9.85-4.457,9.902-9.901c-0.403,0.059-2.641,0.388-4.433,0.706
			C15.562,10.805,14.999,10.889,14.319,11.055z"/>
	</g>
	<circle fill="#231F20" cx="9.993" cy="10" r="1.404"/>
</g>
</svg>
